<svg width="15" height="15" viewBox="0 0 15 15" fill="none" xmlns="http://www.w3.org/2000/svg">
<path d="M7.49982 5.87682C8.15607 5.87682 8.77482 6.13279 9.23732 6.59478C9.69982 7.06301 9.95607 7.68107 9.95607 8.33035C9.94982 9.01084 9.67482 9.62266 9.23107 10.0659C8.78732 10.5092 8.17482 10.7839 7.49982 10.7839C6.84357 10.7839 6.23107 10.5279 5.76232 10.0659C5.29982 9.59769 5.04357 8.98587 5.04357 8.33035C5.03732 7.68107 5.29357 7.06925 5.75607 6.60102C6.22482 6.13279 6.84357 5.87682 7.49982 5.87682ZM7.49982 6.81328C7.09357 6.81328 6.71232 6.96936 6.41857 7.26278C6.13107 7.54996 5.97482 7.93079 5.98107 8.3241V8.33035C5.98107 8.73615 6.13732 9.11697 6.42482 9.40415C6.71232 9.69133 7.09357 9.84741 7.49982 9.84741C8.33732 9.84741 9.01232 9.16692 9.01857 8.33035C9.01857 7.92455 8.86232 7.54372 8.57482 7.25654C8.28732 6.96936 7.90607 6.81328 7.49982 6.81328ZM11.0061 5.72699C11.3186 5.72699 11.5748 5.98296 11.5748 6.29511C11.5748 6.60726 11.3186 6.85698 11.0061 6.85698C10.6936 6.85698 10.4436 6.60726 10.4436 6.29511C10.4436 5.98296 10.6936 5.72699 11.0061 5.72699Z" fill="white"/>
<path opacity="0.5" d="M10.9 3.89775L10.8375 3.76041C10.6688 3.40455 10.475 2.99251 10.3562 2.75527C10.0687 2.1934 9.575 1.88124 8.96875 1.875H6.025C5.41875 1.88124 4.93125 2.1934 4.64375 2.75527C4.51875 3.00499 4.30625 3.45449 4.13125 3.82284L4.09375 3.89775C4.075 3.9477 4.025 3.97267 3.975 3.97267C2.46875 3.97267 1.25 5.19631 1.25 6.69464V10.403C1.25 11.9014 2.46875 13.125 3.975 13.125H11.025C12.525 13.125 13.75 11.9014 13.75 10.403V6.69464C13.75 5.19631 12.525 3.97267 11.025 3.97267C10.9688 3.97267 10.925 3.94145 10.9 3.89775Z" fill="white"/>
</svg>
