<svg width="22" height="22" viewBox="0 0 22 22" fill="none" xmlns="http://www.w3.org/2000/svg">
<path d="M6.51223 12.6171C8.06329 12.6171 9.30633 13.8723 9.30633 15.4343V19.1844C9.30633 20.7354 8.06329 22.0005 6.51223 22.0005H2.7941C1.25404 22.0005 0 20.7354 0 19.1844V15.4343C0 13.8723 1.25404 12.6171 2.7941 12.6171H6.51223ZM19.2068 12.6171C20.7468 12.6171 22.0009 13.8723 22.0009 15.4343V19.1844C22.0009 20.7354 20.7468 22.0005 19.2068 22.0005H15.4887C13.9376 22.0005 12.6946 20.7354 12.6946 19.1844V15.4343C12.6946 13.8723 13.9376 12.6171 15.4887 12.6171H19.2068ZM6.51223 0C8.06329 0 9.30633 1.26505 9.30633 2.8172V6.56723C9.30633 8.12929 8.06329 9.38333 6.51223 9.38333H2.7941C1.25404 9.38333 0 8.12929 0 6.56723V2.8172C0 1.26505 1.25404 0 2.7941 0H6.51223ZM19.2068 0C20.7468 0 22.0009 1.26505 22.0009 2.8172V6.56723C22.0009 8.12929 20.7468 9.38333 19.2068 9.38333H15.4887C13.9376 9.38333 12.6946 8.12929 12.6946 6.56723V2.8172C12.6946 1.26505 13.9376 0 15.4887 0H19.2068Z" fill="#20409A"/>
</svg>
